<svg xmlns="http://www.w3.org/2000/svg" width="1024" height="1024" viewBox="0 0 1024 1024" version="1.1">
	<path d="M 0 512.001 L 0 1024.002 512.250 1023.751 L 1024.500 1023.500 1024.751 511.750 L 1025.002 0 512.501 0 L 0 0 0 512.001 M 0.496 512.500 C 0.496 794.100, 0.610 909.151, 0.750 768.168 C 0.890 627.186, 0.890 396.786, 0.750 256.168 C 0.610 115.551, 0.496 230.900, 0.496 512.500 M 632.750 175.578 C 632.337 175.994, 631.996 179.746, 631.992 183.917 C 631.986 189.909, 629.674 226.029, 628.851 233 C 628.754 233.825, 628.384 232.025, 628.029 229 L 627.383 223.500 625.442 227.740 C 624.374 230.072, 622.938 231.984, 622.250 231.990 C 621.563 231.995, 621 232.884, 621 233.965 C 621 235.045, 620.162 236.378, 619.137 236.927 C 618.113 237.475, 616.708 239.291, 616.016 240.962 C 614.533 244.543, 614.565 244.535, 611.154 242.121 C 603.502 236.702, 589.560 228.955, 588.318 229.431 C 587.536 229.731, 587.140 229.583, 587.438 229.101 C 588.323 227.668, 572.146 220.443, 560 216.848 C 521.199 205.361, 479.647 206.714, 442 220.689 C 414.645 230.844, 393.347 244.653, 373.438 265.144 C 336.392 303.271, 318.574 351.868, 322.828 403.171 C 326.621 448.918, 344.444 486.782, 377.144 518.565 C 398.113 538.945, 419.781 552.335, 445.816 561.003 C 506.293 581.135, 569.578 570.296, 618.310 531.459 C 639.613 514.482, 656.217 493.445, 668.397 468 C 681.683 440.247, 687.044 413.328, 685.633 381.458 C 684.242 350.034, 677.352 326.922, 661.198 299.500 C 657.634 293.450, 654.487 288.093, 654.205 287.595 C 653.922 287.098, 654.154 286.977, 654.720 287.327 C 655.285 287.676, 656.566 286.873, 657.566 285.541 C 658.567 284.209, 659.748 283.344, 660.192 283.619 C 660.637 283.893, 661 283.519, 661 282.786 C 661 282.054, 662.575 280.607, 664.500 279.570 C 666.425 278.533, 668 277.339, 668 276.916 C 668 276.493, 668.788 275.912, 669.750 275.626 C 670.712 275.339, 669.025 275.289, 666 275.514 C 661.273 275.865, 660.992 275.797, 664 275.026 C 669.365 273.652, 687.777 271.868, 704.464 271.105 L 719.500 270.419 710 269.702 C 704.775 269.309, 692.400 268.493, 682.500 267.889 C 672.600 267.286, 664.313 266.614, 664.083 266.396 C 663.854 266.178, 665.147 266, 666.956 266 C 669.766 266, 670.064 265.782, 669 264.500 C 668.315 263.675, 667.135 263, 666.378 263 C 665.620 263, 665 262.325, 665 261.500 C 665 260.675, 664.298 260, 663.441 260 C 662.584 260, 662.109 259.632, 662.387 259.182 C 662.666 258.732, 661.680 257.054, 660.196 255.452 C 658.713 253.850, 657.613 252.193, 657.750 251.770 C 657.888 251.346, 657.438 250.997, 656.750 250.994 C 655.630 250.988, 654.497 249.515, 650.252 242.549 C 649.565 241.422, 648.497 240.631, 647.879 240.791 C 647.227 240.960, 647.009 240.419, 647.360 239.503 C 647.713 238.585, 647.348 237.687, 646.489 237.357 C 645.676 237.046, 645.260 236.388, 645.565 235.895 C 645.869 235.403, 645.714 235, 645.220 235 C 644.726 235, 643.462 233.205, 642.411 231.011 C 641.360 228.818, 640.136 227.018, 639.691 227.011 C 639.246 227.005, 639.141 226.581, 639.457 226.069 C 639.774 225.557, 639.575 224.856, 639.016 224.510 C 638.373 224.113, 638 225.984, 638 229.608 C 638 232.757, 637.791 235.124, 637.535 234.869 C 636.976 234.309, 634.085 194.895, 633.743 183.162 C 633.609 178.575, 633.163 175.163, 632.750 175.578 M 568.252 224.307 C 568.135 225.863, 568.327 226.090, 568.932 225.109 C 570.072 223.265, 572.052 224.628, 571.362 226.782 C 570.940 228.100, 571.037 228.184, 571.781 227.143 C 572.359 226.334, 572.994 226.181, 573.354 226.764 C 573.686 227.302, 575.655 227.726, 577.729 227.707 C 579.891 227.687, 581.407 228.128, 581.282 228.741 C 581.162 229.329, 581.705 230.056, 582.488 230.357 C 583.653 230.804, 583.714 230.465, 582.821 228.507 C 581.700 226.047, 579 224.298, 579 226.031 C 579 226.564, 578.325 227, 577.500 227 C 576.675 227, 576 226.523, 576 225.941 C 576 225.359, 576.520 225.203, 577.155 225.595 C 577.833 226.015, 578.039 225.872, 577.654 225.248 C 577.293 224.665, 576.166 224.405, 575.148 224.672 C 574.131 224.938, 572.658 224.558, 571.875 223.828 C 569.671 221.771, 568.431 221.934, 568.252 224.307 M 493.572 233.101 C 454.499 237.219, 421.198 252.800, 394.448 279.479 C 372.203 301.666, 358.422 326.726, 351.925 356.801 C 348.864 370.972, 348.104 401.960, 350.470 416.111 C 355.222 444.531, 370.278 473.840, 391.378 495.747 C 414.101 519.339, 439.862 533.619, 473.023 541.005 C 524.548 552.482, 576.530 536.768, 615.015 498.081 C 629.626 483.393, 638.079 471.420, 646.867 452.967 C 655.609 434.607, 659.661 420.272, 661.979 399.500 C 665.421 368.658, 659.376 337.740, 644.986 312.590 C 642.548 308.328, 640.386 305.342, 640.182 305.954 C 639.978 306.567, 640.416 307.813, 641.155 308.726 C 642.127 309.924, 642.150 310.174, 641.238 309.626 C 640.364 309.100, 639.751 309.886, 639.242 312.184 C 638.530 315.399, 638.492 315.347, 637.997 310.500 C 637.472 305.349, 635.504 327.510, 634.134 354.024 L 633.489 366.500 632.139 341 C 631.396 326.975, 630.448 312.575, 630.031 309 L 629.274 302.500 628.987 308.500 C 628.829 311.800, 628.517 313.308, 628.294 311.852 C 628.045 310.235, 627.091 308.995, 625.843 308.669 C 624.719 308.375, 624.073 307.691, 624.409 307.148 C 624.744 306.605, 624.361 305.504, 623.557 304.700 C 622.753 303.896, 622.411 302.922, 622.798 302.536 C 623.184 302.149, 623.041 301.983, 622.481 302.167 C 620.834 302.705, 616.694 298.304, 617.548 296.922 C 618.029 296.145, 617.895 295.947, 617.187 296.384 C 616.570 296.766, 615.492 296.160, 614.792 295.039 C 614.092 293.917, 612.926 293, 612.200 293 C 611.475 293, 611.160 292.550, 611.500 292 C 611.840 291.450, 611.390 291, 610.500 291 C 609.610 291, 609.160 290.550, 609.500 290 C 609.840 289.450, 609.641 289, 609.059 289 C 608.477 289, 607.100 288.100, 606 287 C 604.761 285.761, 603.976 285.476, 603.937 286.250 C 603.902 286.938, 603.449 286.440, 602.930 285.145 C 602.353 283.704, 601.436 283.002, 600.567 283.336 C 599.716 283.662, 598.115 282.528, 596.573 280.507 C 595.158 278.651, 592.987 276.938, 591.750 276.700 C 590.512 276.462, 591.975 276.410, 595 276.584 C 599.830 276.863, 600.073 276.794, 596.995 276.017 C 592.627 274.915, 569.138 272.319, 554.500 271.320 L 543.500 270.570 551 269.896 C 555.125 269.525, 565.925 268.623, 575 267.892 C 585.262 267.065, 590.092 266.362, 587.777 266.031 C 584.932 265.625, 584.257 265.175, 584.915 264.122 C 585.389 263.364, 586.307 263.072, 586.956 263.473 C 587.680 263.920, 588.345 263.396, 588.681 262.112 C 588.982 260.963, 589.590 260.247, 590.033 260.520 C 590.476 260.794, 591.496 260.361, 592.300 259.557 C 593.104 258.753, 594.040 258.374, 594.381 258.714 C 594.721 259.055, 595 258.808, 595 258.167 C 595 257.525, 595.788 256.986, 596.750 256.968 C 598.314 256.940, 598.287 256.771, 596.500 255.385 C 592.811 252.523, 575.101 244.020, 567.550 241.485 C 543.916 233.551, 517.602 230.569, 493.572 233.101 M 493 277.630 C 469.280 281.027, 453.511 286.937, 438.300 298.132 C 415.383 314.997, 400.971 337.276, 393.213 367.833 C 390.688 377.778, 390.509 379.888, 390.569 399 C 390.625 416.806, 390.918 420.529, 392.796 427.330 C 398.739 448.845, 407.648 464.407, 423 480.088 C 450.486 508.163, 485.921 519.967, 527.500 514.897 C 544.576 512.815, 568.040 505.333, 568.558 501.805 C 568.752 500.484, 567.468 500.699, 560.948 503.078 C 545.890 508.574, 534.520 510.251, 516 509.710 C 496.843 509.150, 485.673 506.755, 471.711 500.212 C 441.069 485.853, 420.083 460.677, 410.708 427.031 C 408.938 420.680, 408.613 416.758, 408.630 402 C 408.649 386.303, 408.921 383.493, 411.275 374.723 C 419.171 345.298, 437.113 321.954, 461 310.027 C 475.871 302.602, 487.303 300, 505.055 300 C 554.712 300, 591.062 336.258, 590.983 385.708 C 590.953 404.133, 586.744 417.289, 576.585 430.716 C 564.880 446.186, 543.053 457.046, 523.792 456.983 C 506.447 456.926, 486.758 447.405, 476.851 434.285 C 468.674 423.455, 465.599 413.713, 466.178 400.470 C 466.537 392.258, 466.996 390.392, 470.300 383.707 C 474.651 374.905, 481.919 367.660, 490.750 363.323 C 495.769 360.859, 497.643 360.501, 505.500 360.505 C 512.567 360.509, 515.493 360.968, 519.122 362.642 C 528.904 367.154, 536.069 376.689, 537.543 387.153 C 538.909 396.856, 532.479 409.221, 524.282 412.653 C 514.454 416.767, 502 411.379, 502 403.013 C 502 401.026, 502.540 398.860, 503.200 398.200 C 505.233 396.167, 502.497 396.821, 499.672 399.043 C 493.897 403.586, 496.057 414.131, 503.932 419.836 C 518.902 430.680, 541.163 422.699, 550.279 403.218 C 555.702 391.629, 555.169 376.091, 548.928 363.858 C 545.127 356.408, 536.279 348.188, 527.603 344.047 C 514.552 337.819, 504.425 336.560, 492.064 339.630 C 474.128 344.085, 459.905 356.328, 451.356 374.668 C 446.870 384.294, 445.033 392.672, 445.015 403.590 C 444.958 438.481, 471.500 468.452, 508.772 475.583 C 518.756 477.494, 535.384 477.391, 544.293 475.365 C 576.526 468.034, 602.060 442.939, 610.731 410.070 C 614.131 397.180, 614.333 377.114, 611.200 363.310 C 600.734 317.188, 564.188 283.851, 517.702 278.022 C 509.926 277.047, 498.355 276.863, 493 277.630 M 665.651 314.468 C 665.341 315.275, 665.521 316.204, 666.052 316.532 C 666.582 316.860, 666.823 318.190, 666.588 319.488 C 666.353 320.786, 666.697 322.053, 667.352 322.305 C 668.008 322.556, 668.645 323.981, 668.768 325.470 C 669.053 328.911, 669.738 330, 671.618 330 C 672.443 330, 672.835 329.543, 672.490 328.984 C 672.144 328.425, 671.443 328.226, 670.931 328.543 C 670.419 328.859, 670 328.611, 670 327.992 C 670 327.299, 670.816 327.124, 672.118 327.538 C 674.529 328.303, 674.586 328.584, 670.500 319.613 C 667.398 312.803, 666.610 311.968, 665.651 314.468 M 755.302 625.030 C 745.185 626.397, 737.121 628.929, 726.121 634.194 C 717.513 638.314, 714.489 640.414, 708.402 646.501 C 690.972 663.931, 682.746 683.957, 682.731 709 C 682.712 740.234, 698.693 767.265, 725 780.495 C 736.358 786.207, 744.144 788.111, 758.581 788.708 C 775.067 789.390, 784.811 787.610, 797.500 781.598 C 805.436 777.838, 820.516 767.210, 822.523 763.963 C 823.292 762.719, 806.412 745, 804.458 745 C 803.862 745, 802.052 746.411, 800.437 748.136 C 784.900 764.724, 755.320 768.285, 735.886 755.905 C 725.845 749.509, 717.021 737.819, 713.388 726.099 C 711.064 718.603, 710.561 703.608, 712.351 695.219 C 716.598 675.323, 731.426 659.325, 750.932 653.595 C 766.999 648.876, 787.126 653.950, 800.377 666.062 L 806.044 671.241 815.272 662.145 L 824.500 653.049 822.975 650.298 C 818.808 642.781, 798.670 630.810, 784 627.129 C 774.587 624.767, 763.339 623.944, 755.302 625.030 M 558.440 627.441 C 529.044 635.042, 506.408 657.105, 498.877 685.500 C 495.840 696.950, 495.766 716.260, 498.716 728 C 507.152 761.584, 532.467 784.170, 566.667 788.626 C 594.955 792.312, 618.711 784.598, 637.537 765.613 C 652.201 750.825, 659.330 734.434, 660.637 712.500 C 663.115 670.928, 636.097 634.913, 596.066 626.427 C 585.674 624.224, 569.161 624.669, 558.440 627.441 M 205.228 628.440 C 204.286 629.964, 203.795 777.072, 204.715 782 L 205.555 786.500 256.028 786.500 L 306.500 786.500 306.389 779 C 306.328 774.875, 306.216 769.138, 306.139 766.250 L 306 761 269.500 761 L 233 761 233 740.500 L 233 720 262.418 720 C 278.598 720, 292.548 719.727, 293.418 719.393 C 294.684 718.907, 295 717.136, 295 710.533 C 295 705.993, 294.714 700.191, 294.364 697.640 L 293.728 693 263.342 693 L 232.957 693 233.228 673.750 L 233.500 654.500 269.779 654.237 L 306.058 653.975 305.779 640.876 L 305.500 627.778 255.655 627.639 C 225.452 627.555, 205.580 627.871, 205.228 628.440 M 334.510 660.250 C 334.786 678.538, 335.232 706.775, 335.500 723 C 335.767 739.225, 335.990 760.263, 335.993 769.750 L 336 787 349.500 787 L 363 787 363 731.777 C 363 679.830, 363.099 676.702, 364.673 679.027 C 365.594 680.387, 370.239 686.450, 374.997 692.500 C 379.754 698.550, 390.364 712.909, 398.573 724.408 C 406.783 735.907, 420.499 754.582, 429.053 765.908 L 444.606 786.500 457.803 786.779 L 471 787.058 471.106 711.779 C 471.164 670.376, 471.277 634.475, 471.356 632 L 471.500 627.500 457.250 627.223 L 443 626.945 443 682.032 C 443 715.428, 442.637 736.893, 442.077 736.548 C 440.361 735.487, 391.311 669.617, 380.145 653.377 C 374.048 644.509, 367.235 634.947, 365.006 632.127 L 360.953 627 347.480 627 L 334.007 627 334.510 660.250 M 566.272 653.437 C 552.562 656.759, 538.266 667.644, 531.160 680.171 C 521.728 696.801, 521.945 720.285, 531.685 736.905 C 543.144 756.459, 567.089 767.214, 588.906 762.607 C 600.586 760.140, 608.184 756.044, 616.464 747.749 C 627.802 736.391, 633 723.574, 633 706.976 C 633 698.849, 629.997 686.640, 626.285 679.675 C 622.534 672.637, 611.810 662.134, 604.407 658.248 C 593.257 652.396, 578.338 650.513, 566.272 653.437" stroke="none" fill="#0000ff" fill-rule="evenodd"/>
</svg>